<svg version="1.2" xmlns="http://www.w3.org/2000/svg" viewBox="0 0 56 40" width="56" height="40"><style>.a{fill:#f6d84d}.b{fill:#00060d}</style><path class="a" d="m34.4 2.3v8.2h-10.6v23.2h-20.8v-31.4z"/><path class="b" d="m9 25.7h-2l5.2-14.2h2.2l5.2 14.2h-2l-1.1-3.2h-4.5l0.7-1.8h3.1l-2.5-6.9z"/><path fill-rule="evenodd" class="a" d="m53.3 8.6v31.4h-4.5v-1.9h2.6v-27.6h-27.6v27.6h12.6v1.9h-14.5v-31.4zm-13.3 29.5v1.9h-1.8v-1.9zm3.6 0v1.9h-1.8v-1.9zm3.5 0v1.9h-1.7v-1.9z"/><path class="a" d="m35.7 16.9v14.5h-9.2v-14.5z"/><path fill-rule="evenodd" class="b" d="m33.7 28.2l-0.8-0.9c-0.5 0.6-1.3 0.9-2.3 0.9-1.6 0-2.6-0.8-2.6-2.2 0-1 0.5-1.8 1.5-2.3-0.3-0.4-0.5-0.8-0.5-1.5 0-1.4 1.1-2.2 2.2-2.2 1 0 2 0.6 2.3 1.6l-0.7 0.3c-0.2-0.7-0.8-1.2-1.6-1.2-0.7 0-1.5 0.6-1.5 1.4 0 0.6 0.3 1 0.8 1.4l2.3 2.5c0.3-0.4 0.4-0.9 0.5-1.5l0.7 0.4c-0.1 0.7-0.3 1.2-0.6 1.8l1.1 1.1zm-1.4-1.5l-2.3-2.5c-1 0.4-1.3 1.1-1.3 1.7 0 1 0.6 1.5 1.8 1.5 0.8 0 1.3-0.2 1.8-0.7z"/><path fill-rule="evenodd" class="b" d="m48.8 27.3c0 2.3-1.8 4-4.1 4h-6v-14.1h5.7c2.1 0 3.9 1.7 3.9 3.9 0 1.3-0.6 2.3-1.5 2.9 1.2 0.6 2 1.8 2 3.3zm-8.3 2.3h4.2c1.3 0 2.3-1 2.3-2.3 0-1.3-1-2.2-2.3-2.2h-1.7v-1.8h1.3c1.2 0 2.1-0.9 2.1-2.1 0-1.2-0.9-2.2-2.1-2.2h-3.8c0 0 0 10.6 0 10.6z"/></svg>