<svg version="1.2" xmlns="http://www.w3.org/2000/svg" viewBox="0 0 226 42" width="226" height="42"><style>.a{fill:#f6d84d}.b{fill:#00060d}</style><path class="a" d="m119.1 2.3v8.7h-11.2v24.4h-21.9v-33.1z"/><path class="b" d="m92.3 26.9h-2.1l5.5-14.9h2.3l5.5 14.9h-2.1l-1.2-3.4h-4.7l0.7-1.8h3.3l-2.7-7.3z"/><path fill-rule="evenodd" class="a" d="m139 8.9v33.1h-4.8v-2h2.8v-29h-29.1v29h13.3v2h-15.3v-33.1zm-14 31.1v2h-1.9v-2zm3.8 0v2h-1.9v-2zm3.7 0v2h-1.8v-2z"/><path class="a" d="m120.5 17.7v15.3h-9.7v-15.3z"/><path fill-rule="evenodd" class="b" d="m118.4 29.6l-0.9-0.9c-0.6 0.5-1.4 0.9-2.5 0.9-1.6 0-2.7-0.9-2.7-2.4 0-1 0.5-1.9 1.6-2.4-0.4-0.3-0.6-0.8-0.6-1.5 0-1.5 1.2-2.3 2.4-2.3 1.1 0 2.1 0.6 2.4 1.6l-0.7 0.4c-0.2-0.8-0.9-1.3-1.7-1.3-0.8 0-1.6 0.6-1.6 1.4 0 0.6 0.4 1.1 0.8 1.5l2.5 2.7c0.2-0.4 0.4-1 0.5-1.6l0.7 0.5c-0.1 0.6-0.2 1.2-0.6 1.8l1.2 1.2zm-1.5-1.6l-2.5-2.7c-0.9 0.4-1.3 1.2-1.3 1.9 0 0.9 0.7 1.5 1.9 1.5 0.8 0 1.4-0.2 1.9-0.7z"/><path fill-rule="evenodd" class="b" d="m134.3 28.7c0 2.4-2 4.2-4.4 4.2h-6.4v-14.9h6.1c2.3 0 4.1 1.8 4.1 4.1 0 1.3-0.6 2.4-1.6 3.1 1.3 0.6 2.2 1.9 2.2 3.5zm-8.8 2.4h4.4c1.4 0 2.4-1.1 2.4-2.4 0-1.4-1-2.4-2.4-2.4h-1.8v-1.8h1.4c1.2 0 2.2-1.1 2.2-2.3 0-1.3-0.9-2.3-2.2-2.3h-4c0 0 0 11.1 0 11.2z"/></svg>