<svg version="1.2" xmlns="http://www.w3.org/2000/svg" viewBox="0 0 120 74" width="120" height="74"><style>.a{fill:#f6d84d}.b{fill:#00060d}</style><path class="a" d="m70.1 6v13.3h-17.3v37.8h-33.8v-51.1z"/><path class="b" d="m28.7 44h-3.2l8.5-23.1h3.5l8.5 23.1h-3.2l-1.9-5.3h-7.2l1.1-2.7h5l-4.1-11.3z"/><path fill-rule="evenodd" class="a" d="m100.9 16.2v51.1h-7.5v-3.1h4.3v-44.9h-44.9v44.9h20.5v3.1h-23.5v-51.1zm-21.7 48v3.1h-2.9v-3.1zm5.8 0v3.1h-2.9v-3.1zm5.8 0v3.1h-2.9v-3.1z"/><path class="a" d="m72.3 29.7v23.6h-15.1v-23.6z"/><path fill-rule="evenodd" class="b" d="m69 48.1l-1.4-1.4c-0.8 0.8-2.1 1.4-3.8 1.4-2.5 0-4.2-1.3-4.2-3.6 0-1.6 0.8-3 2.5-3.7-0.6-0.6-0.9-1.4-0.9-2.5 0-2.3 1.9-3.5 3.7-3.5 1.6 0 3.1 0.9 3.7 2.5l-1.1 0.6c-0.3-1.2-1.4-1.9-2.6-1.9-1.3 0-2.4 0.8-2.4 2.2 0 0.9 0.5 1.6 1.1 2.2l3.9 4.2c0.4-0.7 0.6-1.6 0.7-2.5l1.2 0.7c-0.2 1-0.4 1.9-0.9 2.8l1.7 1.8zm-2.3-2.4l-3.8-4.1c-1.5 0.6-2.1 1.8-2.1 2.8 0 1.5 1.1 2.5 3 2.5 1.3 0 2.2-0.5 2.9-1.2z"/><path fill-rule="evenodd" class="b" d="m93.5 46.7c0 3.7-2.9 6.5-6.6 6.5h-9.9v-23h9.3c3.5 0 6.4 2.7 6.4 6.3 0 2.1-1 3.8-2.6 4.8 2.1 1 3.4 2.9 3.4 5.4zm-13.5 3.7h6.9c2 0 3.6-1.6 3.6-3.7 0-2.1-1.6-3.7-3.6-3.7h-2.8v-2.8h2.1c1.8 0 3.4-1.6 3.4-3.6 0-1.9-1.5-3.5-3.4-3.5h-6.2c0 0 0 17.2 0 17.3z"/></svg>