<svg version="1.2" xmlns="http://www.w3.org/2000/svg" viewBox="0 0 120 74" width="120" height="74"><style>.a{fill:#f6d84d}.b{fill:#00060d}</style><path class="a" d="m71.8 0v16h-20.7v45.4h-40.7v-61.4z"/><path class="b" d="m22.1 45.7h-3.9l10.3-27.7h4.1l10.3 27.7h-3.9l-2.2-6.3h-8.8l1.4-3.4h6.1l-5-13.6z"/><path fill-rule="evenodd" class="a" d="m108.8 12.3v61.4h-8.9v-3.7h5.2v-54h-54v54h24.6v3.7h-28.3v-61.4zm-26.1 57.7v3.7h-3.4v-3.7zm6.9 0v3.7h-3.5v-3.7zm7 0v3.7h-3.5v-3.7z"/><path class="a" d="m74.4 28.5v28.4h-18v-28.4z"/><path fill-rule="evenodd" class="b" d="m70.5 50.6l-1.7-1.7c-1 1-2.5 1.7-4.5 1.7-3.1 0-5.1-1.6-5.1-4.3 0-2 1-3.6 3-4.5-0.7-0.7-1.1-1.6-1.1-2.9 0-2.8 2.3-4.3 4.5-4.3 1.9 0 3.8 1.1 4.5 3.1l-1.4 0.7c-0.4-1.5-1.7-2.4-3.1-2.4-1.5 0-2.9 1-2.9 2.7 0 1.1 0.6 1.9 1.4 2.7l4.6 5c0.4-0.8 0.8-1.8 0.9-3l1.4 0.8c-0.2 1.3-0.5 2.4-1.1 3.4l2.1 2.2zm-2.7-2.9l-4.6-4.9c-1.8 0.7-2.6 2.1-2.6 3.4 0 1.8 1.4 2.9 3.6 2.9 1.5 0 2.6-0.5 3.6-1.4z"/><path fill-rule="evenodd" class="b" d="m100 48.9c0 4.5-3.6 7.8-8 7.8h-11.9v-27.6h11.2c4.2 0 7.7 3.3 7.7 7.5 0 2.6-1.2 4.6-3.1 5.8 2.5 1.2 4.1 3.6 4.1 6.5zm-16.2 4.5h8.2c2.4 0 4.3-1.9 4.3-4.5 0-2.5-1.9-4.4-4.3-4.4h-3.4v-3.4h2.6c2.2 0 4-1.9 4-4.3 0-2.3-1.7-4.2-4-4.2h-7.4c0 0 0 20.7 0 20.8z"/></svg>