<svg version="1.2" xmlns="http://www.w3.org/2000/svg" viewBox="0 0 78 56" width="78" height="56"><style>.a{fill:#f6d84d}.b{fill:#00060d}</style><path class="a" d="m46.1 10.3v10h-12.9v28.1h-25.2v-38.1z"/><path class="b" d="m15.2 38.6h-2.4l6.4-17.1h2.6l6.3 17.1h-2.4l-1.3-3.9h-5.5l0.9-2h3.7l-3-8.5z"/><path fill-rule="evenodd" class="a" d="m69 17.9v38.1h-5.5v-2.3h3.2v-33.4h-33.5v33.4h15.3v2.3h-17.5v-38.1zm-16.2 35.8v2.3h-2.1v-2.3zm4.2 0v2.3h-2.1v-2.3zm4.3 0v2.3h-2.2v-2.3z"/><path class="a" d="m47.7 28v17.6h-11.2v-17.6z"/><path fill-rule="evenodd" class="b" d="m45.2 41.7l-1-1.1c-0.6 0.7-1.5 1.1-2.8 1.1-1.9 0-3.1-1-3.1-2.7 0-1.2 0.6-2.2 1.9-2.8-0.5-0.4-0.7-1-0.7-1.8 0-1.7 1.3-2.6 2.7-2.6 1.2 0 2.4 0.7 2.8 1.9l-0.8 0.4c-0.3-0.9-1.1-1.4-2-1.4-0.9 0-1.8 0.6-1.8 1.6 0 0.7 0.4 1.2 0.9 1.7l2.9 3.1c0.2-0.5 0.4-1.2 0.5-1.8l0.9 0.5c-0.2 0.7-0.4 1.4-0.7 2l1.3 1.4zm-1.7-1.8l-2.8-3c-1.2 0.4-1.6 1.3-1.6 2 0 1.2 0.8 1.9 2.2 1.9 0.9 0 1.6-0.3 2.2-0.9z"/><path fill-rule="evenodd" class="b" d="m63.6 40.6c0 2.8-2.2 4.9-5 4.9h-7.4v-17.1h6.9c2.7 0 4.8 2 4.8 4.6 0 1.6-0.7 2.9-1.9 3.6 1.6 0.8 2.6 2.2 2.6 4zm-10.1 2.8h5.1c1.5 0 2.7-1.2 2.7-2.8 0-1.5-1.2-2.7-2.7-2.7h-2.1v-2.1h1.6c1.4 0 2.5-1.2 2.5-2.6 0-1.5-1.1-2.7-2.5-2.7h-4.6c0 0 0 12.9 0 12.9z"/></svg>