<svg version="1.2" xmlns="http://www.w3.org/2000/svg" viewBox="0 0 269 56" width="269" height="56"><style>.a{fill:#f6d84d}.b{fill:#00060d}</style><path class="a" d="m147.8 0v12.2h-15.7v34.5h-31v-46.7z"/><path class="b" d="m110 34.7h-2.9l7.8-21h3.1l7.8 21h-2.9l-1.7-4.8h-6.6l1-2.5h4.6l-3.8-10.4z"/><path fill-rule="evenodd" class="a" d="m176 9.3v46.7h-6.8v-2.8h3.9v-41h-41v41h18.7v2.8h-21.5v-46.7zm-19.8 43.9v2.8h-2.7v-2.8zm5.3 0v2.8h-2.6v-2.8zm5.2 0v2.8h-2.6v-2.8z"/><path class="a" d="m149.8 21.7v21.6h-13.7v-21.6z"/><path fill-rule="evenodd" class="b" d="m146.8 38.5l-1.2-1.3c-0.8 0.8-2 1.3-3.5 1.3-2.3 0-3.9-1.2-3.9-3.3 0-1.5 0.8-2.7 2.4-3.4-0.6-0.6-0.9-1.3-0.9-2.3 0-2 1.7-3.2 3.4-3.2 1.5 0 2.9 0.9 3.4 2.3l-1 0.6c-0.3-1.1-1.3-1.8-2.4-1.8-1.2 0-2.2 0.8-2.2 2 0 0.8 0.4 1.5 1 2.1l3.6 3.8c0.3-0.7 0.5-1.4 0.6-2.3l1.1 0.6c-0.2 1-0.4 1.8-0.9 2.6l1.7 1.7zm-2.1-2.3l-3.5-3.7c-1.4 0.6-1.9 1.7-1.9 2.6 0 1.4 1 2.2 2.7 2.2 1.1 0 2-0.4 2.7-1.1z"/><path fill-rule="evenodd" class="b" d="m169.2 37.2c0 3.4-2.7 5.9-6 5.9h-9.1v-21h8.5c3.3 0 5.9 2.5 5.9 5.7 0 2-0.9 3.5-2.3 4.4 1.8 1 3 2.7 3 5zm-12.3 3.4h6.3c1.8 0 3.3-1.5 3.3-3.4 0-1.9-1.5-3.4-3.3-3.4h-2.6v-2.6h1.9c1.7 0 3.1-1.4 3.1-3.2 0-1.8-1.3-3.2-3.1-3.2h-5.6c0 0 0 15.7 0 15.8z"/></svg>