<svg version="1.2" xmlns="http://www.w3.org/2000/svg" viewBox="0 0 269 56" width="269" height="56"><style>.a{fill:#f6d84d}.b{fill:#00060d}</style><path class="a" d="m141.7 4v10.4h-13.4v29.3h-26.3v-39.7z"/><path class="b" d="m109.6 33.6h-2.5l6.6-18h2.7l6.6 18h-2.5l-1.4-4.1h-5.7l0.9-2.2h3.9l-3.2-8.8z"/><path fill-rule="evenodd" class="a" d="m165.7 11.9v39.8h-5.8v-2.4h3.4v-34.9h-35v34.9h16v2.4h-18.3v-39.8zm-16.9 37.4v2.4h-2.2v-2.4zm4.4 0v2.4h-2.2v-2.4zm4.5 0v2.4h-2.3v-2.4z"/><path class="a" d="m143.4 22.5v18.3h-11.6v-18.3z"/><path fill-rule="evenodd" class="b" d="m140.9 36.8l-1.1-1.1c-0.6 0.6-1.6 1.1-2.9 1.1-2 0-3.3-1.1-3.3-2.9 0-1.2 0.6-2.3 2-2.8-0.5-0.5-0.8-1.1-0.8-1.9 0-1.8 1.5-2.8 2.9-2.8 1.3 0 2.5 0.7 2.9 2l-0.8 0.4c-0.3-0.9-1.2-1.5-2.1-1.5-1 0-1.9 0.7-1.9 1.7 0 0.7 0.4 1.3 0.9 1.8l3.1 3.2c0.2-0.5 0.4-1.2 0.5-1.9l0.9 0.5c-0.1 0.8-0.3 1.5-0.7 2.2l1.4 1.4zm-1.8-1.9l-3-3.1c-1.1 0.4-1.6 1.4-1.6 2.2 0 1.1 0.8 1.9 2.3 1.9 1 0 1.7-0.4 2.3-1z"/><path fill-rule="evenodd" class="b" d="m160 35.7c0 2.8-2.3 5-5.2 5h-7.7v-17.9h7.2c2.8 0 5 2.2 5 4.9 0 1.7-0.8 3-1.9 3.8 1.5 0.7 2.6 2.3 2.6 4.2zm-10.5 2.8h5.3c1.6 0 2.8-1.2 2.8-2.8 0-1.7-1.2-2.9-2.8-2.9h-2.2v-2.2h1.7c1.4 0 2.6-1.2 2.6-2.8 0-1.5-1.1-2.7-2.6-2.7h-4.8c0 0 0 13.4 0 13.4z"/></svg>