<svg version="1.2" xmlns="http://www.w3.org/2000/svg" viewBox="0 0 78 56" width="78" height="56"><style>.a{fill:#f6d84d}.b{fill:#00060d}</style><path class="a" d="m47.8 0v12.1h-15.6v34.3h-30.8v-46.4z"/><path class="b" d="m10.2 34.5h-2.9l7.8-20.9h3.1l7.8 20.9h-3l-1.6-4.7h-6.6l1-2.6h4.6l-3.8-10.3z"/><path fill-rule="evenodd" class="a" d="m75.8 9.3v46.4h-6.7v-2.8h3.9v-40.8h-40.8v40.8h18.6v2.8h-21.4v-46.4zm-19.7 43.6v2.8h-2.6v-2.8zm5.2 0v2.8h-2.6v-2.8zm5.2 0v2.8h-2.6v-2.8z"/><path class="a" d="m49.8 21.6v21.4h-13.6v-21.4z"/><path fill-rule="evenodd" class="b" d="m46.8 38.3l-1.2-1.3c-0.8 0.7-1.9 1.3-3.5 1.3-2.3 0-3.8-1.3-3.8-3.3 0-1.5 0.8-2.7 2.3-3.4-0.5-0.5-0.8-1.2-0.8-2.2 0-2.1 1.6-3.2 3.3-3.2 1.5 0 2.9 0.8 3.4 2.3l-1 0.5c-0.3-1.1-1.3-1.8-2.4-1.8-1.1 0-2.2 0.8-2.2 2 0 0.9 0.5 1.5 1.1 2.1l3.5 3.7c0.3-0.6 0.5-1.3 0.6-2.2l1.1 0.6c-0.2 1-0.4 1.8-0.8 2.6l1.6 1.7zm-2.1-2.3l-3.5-3.6c-1.3 0.5-1.9 1.6-1.9 2.5 0 1.4 1 2.2 2.7 2.2 1.2 0 2-0.4 2.7-1.1z"/><path fill-rule="evenodd" class="b" d="m69.1 37c0 3.3-2.7 5.9-6 5.9h-9v-20.9h8.4c3.3 0 5.9 2.5 5.9 5.7 0 1.9-1 3.4-2.3 4.4 1.8 0.9 3 2.6 3 4.9zm-12.2 3.3h6.2c1.8 0 3.3-1.4 3.3-3.3 0-2-1.5-3.4-3.3-3.4h-2.6v-2.5h2c1.6 0 3-1.5 3-3.3 0-1.7-1.3-3.2-3-3.2h-5.6c0 0 0 15.7 0 15.7z"/></svg>