<?xml version="1.0" encoding="utf-8"?>
<!-- Generator: Adobe Illustrator 24.1.2, SVG Export Plug-In . SVG Version: 6.00 Build 0)  -->
<svg version="1.1" id="Layer_1" xmlns="http://www.w3.org/2000/svg" xmlns:xlink="http://www.w3.org/1999/xlink" x="0px" y="0px"
	 viewBox="0 0 131 26" style="enable-background:new 0 0 131 26;" xml:space="preserve">
<style type="text/css">
	.st0{fill:#F6D84D;}
	.st1{fill:#00060D;}
	.st2{fill-rule:evenodd;clip-rule:evenodd;fill:#F6D84D;}
	.st3{fill-rule:evenodd;clip-rule:evenodd;fill:#00060D;}
</style>
<path class="st0" d="M31.7,0v5.6h-7.3v15.8H10.3V0H31.7z"/>
<path class="st1" d="M14.3,15.9H13l3.6-9.6H18l3.6,9.6h-1.4l-0.7-2.2h-3.1l0.5-1.1H19l-1.7-4.8L14.3,15.9z"/>
<path class="st2" d="M44.6,4.3v21.4h-3.1v-1.3h1.8V5.6H24.4v18.8H33v1.3h-9.8V4.3L44.6,4.3z M35.5,24.4v1.3h-1.2v-1.3H35.5z
	 M37.9,24.4v1.3h-1.2v-1.3H37.9z M40.3,24.4v1.3h-1.2v-1.3H40.3z"/>
<path class="st0" d="M32.6,9.9v9.9h-6.3V9.9H32.6z"/>
<path class="st3" d="M31.2,17.7L30.6,17c-0.3,0.4-0.9,0.7-1.6,0.7c-1,0-1.7-0.6-1.7-1.6c0-0.6,0.3-1.2,1-1.5
	c-0.2-0.3-0.4-0.6-0.4-1.1c0-0.9,0.8-1.4,1.6-1.4c0.7,0,1.3,0.4,1.6,1l-0.5,0.3c-0.1-0.5-0.6-0.8-1.1-0.8s-1,0.3-1,0.9
	c0,0.4,0.2,0.6,0.5,0.9l1.6,1.8c0.1-0.3,0.2-0.7,0.3-1.1l0.5,0.3c-0.1,0.4-0.2,0.8-0.4,1.2l0.7,0.8L31.2,17.7z M30.3,16.6l-1.6-1.7
	c-0.7,0.3-0.9,0.8-0.9,1.2c0,0.6,0.5,1,1.2,1C29.6,17.1,30,17,30.3,16.6z"/>
<path class="st3" d="M41.5,17c0,1.6-1.3,2.8-2.8,2.8h-4.1v-9.6h3.8c1.5,0,2.7,1.1,2.7,2.6c0,0.9-0.4,1.6-1,2
	C40.9,15.2,41.5,16,41.5,17z M35.8,18.6h2.9c0.8,0,1.5-0.7,1.5-1.6c0-0.8-0.7-1.5-1.5-1.5h-1.2v-1.2h0.9c0.8,0,1.4-0.6,1.4-1.5
	c0-0.8-0.6-1.4-1.4-1.4h-2.6C35.8,11.4,35.8,18.6,35.8,18.6z"/>
<g>
	<path d="M61.5,21c-1.1,0-2-0.2-2.9-0.5s-1.7-0.9-2.4-1.5c-0.7-0.7-1.2-1.4-1.6-2.3c-0.4-0.9-0.6-1.8-0.6-2.9c0-1,0.2-2,0.6-2.9
		c0.4-0.9,0.9-1.7,1.6-2.3c0.7-0.7,1.5-1.2,2.4-1.5s1.9-0.5,2.9-0.5c1.1,0,2.1,0.2,3,0.5c0.9,0.4,1.6,0.9,2.3,1.5l-2.1,2.1
		c-0.4-0.4-0.8-0.7-1.4-0.9c-0.5-0.2-1.1-0.3-1.8-0.3c-0.6,0-1.2,0.1-1.7,0.3c-0.5,0.2-1,0.5-1.3,0.9s-0.7,0.9-0.9,1.4
		c-0.2,0.5-0.3,1.1-0.3,1.8c0,0.7,0.1,1.3,0.3,1.8c0.2,0.5,0.5,1,0.9,1.4s0.8,0.7,1.3,0.9c0.5,0.2,1.1,0.3,1.7,0.3
		c0.7,0,1.3-0.1,1.9-0.3s1-0.5,1.4-0.9l2.1,2.1c-0.7,0.6-1.5,1.1-2.3,1.5C63.7,20.9,62.7,21,61.5,21z"/>
	<path d="M68.6,20.8V6.7h2.2l5.6,8.7h-1.1l5.5-8.7h2.3v14.1h-3.1V12l0.6,0.1l-3.6,5.6h-2.1l-3.6-5.6l0.5-0.1v8.8H68.6z"/>
	<path d="M89.7,21c-1.2,0-2.2-0.2-3-0.6c-0.8-0.4-1.6-1-2.3-1.7l2-2c0.5,0.5,1,0.9,1.5,1.2c0.6,0.3,1.2,0.4,1.9,0.4
		c0.7,0,1.2-0.1,1.5-0.4c0.4-0.2,0.6-0.6,0.6-1c0-0.4-0.1-0.7-0.4-0.9s-0.6-0.4-1-0.6c-0.4-0.2-0.8-0.3-1.3-0.5
		c-0.5-0.2-0.9-0.3-1.4-0.5s-0.9-0.5-1.3-0.8c-0.4-0.3-0.7-0.7-1-1.2c-0.2-0.5-0.4-1.1-0.4-1.8c0-0.9,0.2-1.6,0.6-2.2
		c0.4-0.6,1-1.1,1.8-1.4c0.7-0.3,1.6-0.5,2.6-0.5c1,0,1.9,0.2,2.7,0.5c0.8,0.3,1.5,0.8,2,1.4l-2,2c-0.4-0.4-0.9-0.8-1.3-1
		c-0.4-0.2-0.9-0.3-1.5-0.3s-1,0.1-1.3,0.3c-0.3,0.2-0.5,0.5-0.5,0.9c0,0.4,0.1,0.6,0.4,0.9c0.2,0.2,0.6,0.4,1,0.6s0.8,0.3,1.3,0.5
		s0.9,0.3,1.4,0.6c0.5,0.2,0.9,0.5,1.3,0.8s0.7,0.7,1,1.2s0.4,1.1,0.4,1.9c0,1.3-0.5,2.4-1.4,3.2S91.4,21,89.7,21z"/>
</g>
</svg>
