<svg version="1.2" xmlns="http://www.w3.org/2000/svg" viewBox="0 0 50 26" width="50" height="26"><style>.a{fill:#f6d84d}.b{fill:#00060d}</style><path class="a" d="m28.9 0v5.6h-7.3v15.8h-14.1v-21.4z"/><path class="b" d="m11.5 15.9h-1.3l3.6-9.6h1.4l3.6 9.6h-1.4l-0.7-2.2h-3.1l0.5-1.1h2.1l-1.7-4.8z"/><path fill-rule="evenodd" class="a" d="m41.8 4.3v21.4h-3.1v-1.3h1.8v-18.8h-18.9v18.8h8.6v1.3h-9.8v-21.4zm-9.1 20.1v1.3h-1.2v-1.3zm2.4 0v1.3h-1.2v-1.3zm2.4 0v1.3h-1.2v-1.3z"/><path class="a" d="m29.8 9.9v9.9h-6.3v-9.9z"/><path fill-rule="evenodd" class="b" d="m28.4 17.7l-0.6-0.7c-0.3 0.4-0.9 0.7-1.6 0.7-1 0-1.7-0.6-1.7-1.6 0-0.6 0.3-1.2 1-1.5-0.2-0.3-0.4-0.6-0.4-1.1 0-0.9 0.8-1.4 1.6-1.4 0.7 0 1.3 0.4 1.6 1l-0.5 0.3c-0.1-0.5-0.6-0.8-1.1-0.8-0.5 0-1 0.3-1 0.9 0 0.4 0.2 0.6 0.5 0.9l1.6 1.8q0.2-0.5 0.3-1.1l0.5 0.3c-0.1 0.4-0.2 0.8-0.4 1.2l0.7 0.8zm-0.9-1.1l-1.6-1.7c-0.7 0.3-0.9 0.8-0.9 1.2 0 0.6 0.5 1 1.2 1 0.6 0 1-0.1 1.3-0.5z"/><path fill-rule="evenodd" class="b" d="m38.7 17c0 1.6-1.3 2.8-2.8 2.8h-4.1v-9.6h3.8c1.5 0 2.7 1.1 2.7 2.6 0 0.9-0.4 1.6-1 2 0.8 0.4 1.4 1.2 1.4 2.2zm-5.7 1.6h2.9c0.8 0 1.5-0.7 1.5-1.6 0-0.8-0.7-1.5-1.5-1.5h-1.2v-1.2h0.9c0.8 0 1.4-0.6 1.4-1.5 0-0.8-0.6-1.4-1.4-1.4h-2.6c0 0 0 7.2 0 7.2z"/></svg>